<svg xmlns="http://www.w3.org/2000/svg" width="512" height="512" fill-rule="evenodd" clip-rule="evenodd" image-rendering="optimizeQuality" shape-rendering="geometricPrecision" text-rendering="geometricPrecision" viewBox="0 0 512 512" id="linkedin"><defs><linearGradient id="a" x1="67.83" x2="474.19" y1="82.42" y2="389.98" gradientUnits="userSpaceOnUse"><stop offset="0" stop-color="#10658f"></stop><stop offset="1" stop-color="#007fc0"></stop></linearGradient></defs><path fill="url(#a)" d="M256 0c141.39,0 256,114.61 256,256 0,141.39 -114.61,256 -256,256 -141.39,0 -256,-114.61 -256,-256 0,-141.39 114.61,-256 256,-256z"></path><polygon fill="#fff" points="129.29 388.01 183.76 388.01 183.76 212 129.29 212"></polygon><path fill="#fff" d="M156.27 188.95c17.79 0 32.22-14.55 32.22-32.48 0-17.94-14.43-32.48-32.22-32.48-17.8 0-32.22 14.54-32.22 32.48 0 17.93 14.42 32.48 32.22 32.48zM270.86 295.62c0-24.75 11.39-39.49 33.2-39.49 20.03 0 29.66 14.15 29.66 39.49 0 25.34 0 92.39 0 92.39l54.22 0c0 0 0-64.29 0-111.44 0-47.15-26.72-69.95-64.04-69.95-37.33 0-53.04 29.09-53.04 29.09l0-23.71-52.26 0 0 176.01 52.26 0c0 0 0-65.28 0-92.39z"></path></svg>