<svg xmlns="http://www.w3.org/2000/svg" width="512" height="512" fill-rule="evenodd" clip-rule="evenodd" image-rendering="optimizeQuality" shape-rendering="geometricPrecision" text-rendering="geometricPrecision" viewBox="0 0 512 512" id="twitter"><defs><linearGradient id="a" x1="67.83" x2="474.19" y1="82.42" y2="389.98" gradientUnits="userSpaceOnUse"><stop offset="0" stop-color="#178cc8"></stop><stop offset="1" stop-color="#49c1f0"></stop></linearGradient></defs><path fill="url(#a)" d="M256 0c141.39,0 256,114.61 256,256 0,141.39 -114.61,256 -256,256 -141.39,0 -256,-114.61 -256,-256 0,-141.39 114.61,-256 256,-256z"></path><path fill="#fff" d="M392.77 168.37c-8.76,3.96 -18.39,6.37 -27.84,7.95 8.31,-1.39 20.63,-21.25 23.01,-29.04 0.71,-1.42 -0.32,-1.93 -1.54,-1.32 -10.54,5.65 -21.45,9.75 -33.06,12.65 -2.18,0.54 -3.49,-2.17 -5.17,-3.56 -41.21,-35.07 -102.53,0.1 -94.53,54.41 0.18,1.33 0.07,1.51 -1.14,1.33 -45.41,-6.77 -83.06,-23.02 -113.63,-57.84 -1.32,-1.52 -2.04,-1.51 -3.13,0.11 -16.09,24.12 -4.48,57.64 16.81,74.23 -0.91,0.18 -12.02,-1.02 -21.93,-6.14 -1.33,-0.85 -1.99,-0.36 -2.11,1.14 -1.34,23.6 20.16,51.17 43.56,55.19 -4.4,0.96 -8.92,1.65 -21.51,0.66 -1.57,-0.3 -2.17,0.48 -1.57,1.99 9.46,25.79 29.89,33.47 45.19,37.84 2.04,0.35 4.09,0.36 6.15,0.84 -11.18,16.62 -59.5,24.54 -78.09,22.71 -1.29,-0.19 -6.13,-0.86 -3.01,1.69 110.41,72.78 247.91,-5.11 247.91,-143.57 0,-1.79 2.1,-2.77 3.36,-3.71 5.75,-4.32 23.3,-20.16 23.3,-27.56 0,-0.73 0.09,-0.51 -1.03,0z"></path></svg>